#!OML:ASF F:\VICON\USERDATA\INSTALL\rory3\rory3.ASF
:FULLY-SPECIFIED
:DEGREES
45
root 0.0904493604430337 18.154482420620255 7.1524778426156175 -3.103476533037753 -3.5356043907821855 -6.011203353212364
lfemur -21.710600471104044 1.9612022481305105 -12.53453965560266
ltibia 56.494246994444225
lfoot -6.347050221212821 -5.166079320426128
ltoes -6.790730761094386
rfemur -7.744485860678396 7.819610498419042 31.767110444885542
rtibia 31.06426996167953
rfoot -12.838539100975655 -8.794414309824585
rtoes 9.356353767952474
lowerback 11.212494322215734 1.1011457481853653 4.340236411475508
upperback 0.6924858904484874 2.1772050408861894 2.4877426747281426
thorax -5.355954308977585 0.9509019480756442 -0.2548493400508639
lowerneck -15.732378378806446 -2.9307750018643293 -2.4560970486278024
upperneck 21.2370814121934 -3.756630089240658 1.1087359030242536
head 9.397846413966617 -1.7820036708521938 0.3012480725487161
lclavicle -1.953260797748229e-15 9.067506629608343e-16
lhumerus -32.47848209689486 3.2590534172800414 83.12076466718544
lradius 25.21582395530759
lwrist 5.684178767585706
lhand -27.112756067922504 22.68662440708696
lfingers 7.12502
lthumb -0.36864519873371426 53.271758529584126
rclavicle -1.9575960393444116e-15 9.0364612365127e-16
rhumerus -25.857650740241848 -11.09249257627678 -82.14692087584794
rradius 26.698760036786005
rwrist 2.1741743068896744
rhand -17.16384966781379 20.78978674575981
rfingers 7.12502
rthumb 8.83313718181913 -8.891953910087064
46
root 0.09346622300285135 18.081172005447954 8.149479361505824 -2.7177234840854685 -4.051503019518736 -6.597021916214514
lfemur -23.659864227738264 1.2976268443433683 -11.817751982377906
ltibia 49.82085093093537
lfoot -8.171452505604844 -2.040553492078086
ltoes -5.11920008625955
rfemur -5.719902993594469 7.878774376685021 32.76260831875821
rtibia 31.44312439736756
rfoot -13.52723826783407 -9.099892691314345
rtoes 7.791387088696963
lowerback 11.054231680176336 1.4024201477841838 5.116276085701386
upperback 0.6466883629331527 2.6385062287646646 2.3859227056373147
thorax -5.294599068570151 1.1432841694726767 -0.8232391199587134
lowerneck -15.811465464549762 -2.947418523162077 -2.3684946009095103
upperneck 21.09421534828758 -3.814076418410509 1.1843100127635147
head 9.362150390741784 -1.803893608116877 0.29810358482898325
lclavicle -1.953172173275514e-15 9.068326499425472e-16
lhumerus -33.383132230657814 4.832198486763924 82.43202154708722
lradius 24.230604968365146
lwrist 5.5501076600478925
lhand -26.824714693710057 22.76308970672174
lfingers 7.12502
lthumb -0.2423265068682745 53.16142862168632
rclavicle -1.9547207340924366e-15 9.0625920291257e-16
rhumerus -24.90466115535361 -8.88101047088307 -82.80633406050303
rradius 28.179352809583225
rwrist 0.9980432329445472
rhand -17.5172870179111 20.66794869445444
rfingers 7.12502
rthumb 8.582446364296532 -8.665933369968545
47
root 0.10264347987233458 18.0638489651795 8.679534607908845 -2.534443201373646 -5.147183189120289 -6.78602587446907
lfemur -24.71769825313164 0.1889896913504332 -11.317630323021216
ltibia 41.2799378429445
lfoot -7.847114811091371 0.9392395313845787
ltoes -3.816514122404794
rfemur -3.5903663313192435 8.03044765667844 33.2969019296038
rtibia 30.824998500664368
rfoot -12.787756044039586 -8.588564185565119
rtoes 7.1050267283475765
lowerback 11.022799459689853 1.8232060795634322 5.49594693180975
upperback 0.6664017505764569 3.186781217034861 2.2405796233407447
thorax -5.171746946256656 1.4331839635979082 -1.1793548193497028
lowerneck -15.883221888658575 -2.936262419692201 -2.2001347006316787
upperneck 20.998463940777604 -3.8140925556718863 1.1194906273468548
head 9.340350399233769 -1.8032448095368467 0.24567533695740448
lclavicle -1.9541239230745057e-15 9.059561648920775e-16
lhumerus -34.19116314067412 5.814245358250887 82.11807186361213
lradius 23.025288857530676
lwrist 6.100492205135248
lhand -27.255214087072858 22.0318941179042
lfingers 7.12502
lthumb -0.6112302563551567 52.43106781426095
rclavicle -1.9571844860921858e-15 9.039046031863927e-16
rhumerus -23.83462044972969 -7.519265697223155 -83.07578309366738
rradius 28.99150122349691
rwrist 0.5107812714537872
rhand -17.469014505497558 21.70009322924382
rfingers 7.12502
rthumb 8.69073967643424 -7.766990739797828
48
root 0.1125894432942372 18.01292953336914 9.472322991016544 -2.127470492536223 -5.924174402133096 -7.238454287674552
lfemur -24.546948309527743 -1.7901043390794347 -9.942509500604737
ltibia 30.576003166662755
lfoot -7.202673589726491 3.4680498251812457
ltoes -3.8933500790036897
rfemur -1.3021728377553767 8.145512391487852 34.228075252668795
rtibia 29.990889796168066
rfoot -12.539934494699624 -8.35381712163579
rtoes 5.689862738193071
lowerback 10.825975354042964 2.1222137698264416 6.155020877015441
upperback 0.5462483838916894 3.6725138510027793 2.2201616712877597
thorax -5.087026004223512 1.6646889324566567 -1.5869632228400823
lowerneck -16.026459731438077 -2.948080096214988 -2.1793011408872847
upperneck 20.8809049993917 -3.8375041918267803 1.2090190452368912
head 9.306190722560046 -1.8053941715936936 0.24529951817677587
lclavicle -1.9549401416309535e-15 9.052051296219045e-16
lhumerus -34.836718201143185 7.588627746618202 81.23576475050841
lradius 21.55552534411958
lwrist 4.469710035060627
lhand -26.88430185583338 21.7477291522371
lfingers 7.12502
lthumb -0.2835967400597155 52.34758384010285
rclavicle -1.9559773317757073e-15 9.050168557752876e-16
rhumerus -23.079608483019015 -7.2517720576046045 -83.20143311680184
rradius 29.4188932801684
rwrist 0.37991483766915124
rhand -17.678308663448373 23.351506712920553
rfingers 7.12502
rthumb 8.384607026567105 -6.433302636841276
